<?xml version="1.0" encoding="iso-8859-1"?>
<!-- Uploaded to: SVG Repo, www.svgrepo.com, Generator: SVG Repo Mixer Tools -->
<svg version="1.1" id="Layer_1" xmlns="http://www.w3.org/2000/svg" xmlns:xlink="http://www.w3.org/1999/xlink" 
	 viewBox="0 0 512 512" xml:space="preserve">
<rect x="4" y="109.852" style="fill:#FFFFFF;" width="504" height="358.496"/>
<g>
	<polygon style="fill:#E2E2E2;" points="369.968,431.172 142.032,431.172 104.664,459.588 407.336,459.588 	"/>
	<polygon style="fill:#E2E2E2;" points="113.32,431.172 47.632,431.172 10.256,459.588 76.072,459.588 	"/>
	<polygon style="fill:#E2E2E2;" points="464.368,431.172 398.68,431.172 435.928,459.588 501.744,459.588 	"/>
	<polygon style="fill:#E2E2E2;" points="369.968,147.788 142.032,147.788 104.664,119.372 407.336,119.372 	"/>
	<polygon style="fill:#E2E2E2;" points="113.32,147.788 47.632,147.788 10.256,119.372 76.072,119.372 	"/>
	<polygon style="fill:#E2E2E2;" points="464.368,147.788 398.68,147.788 435.928,119.372 501.744,119.372 	"/>
</g>
<path style="fill:#E5E5E5;" d="M504,113.852v350.496H8V113.852H504 M512,105.852H0v366.496h512V105.852z"/>
<path d="M0,119.372V55.636c0.024-8.824,7.176-15.976,16-16h479.96c8.824,0.024,15.976,7.176,16,16v63.728H0V119.372z"/>
<polygon style="fill:#FFFFFF;" points="471.624,101.508 171.536,101.508 200.24,57.508 471.624,57.508 "/>
<circle style="fill:#E21B1B;" cx="53.904" cy="78.908" r="13.608"/>
<circle style="fill:#939393;" cx="89.976" cy="78.908" r="13.608"/>
<circle style="fill:#E2E2E2;" cx="126.056" cy="78.908" r="13.608"/>
<path d="M215.624,71.244l1.912,8.312c0.416,1.952,0.8,3.944,1.168,5.936h0.08c0.376-1.992,0.976-4,1.504-5.896l2.4-8.352h3.76
	l2.296,8.128c0.56,2.144,1.048,4.136,1.464,6.128h0.08c0.296-1.992,0.712-4,1.2-6.128l2.032-8.128h4.544l-5.752,18.312H228
	l-2.176-7.448c-0.568-1.928-1.032-3.888-1.392-5.864h-0.08c-0.336,1.984-0.8,3.944-1.392,5.864l-2.328,7.448h-4.328l-5.424-18.312
	H215.624z"/>
<path d="M244.392,71.244l1.912,8.312c0.416,1.952,0.8,3.944,1.168,5.936h0.08c0.376-1.992,0.976-4,1.504-5.896l2.4-8.352h3.76
	l2.296,8.128c0.56,2.144,1.048,4.136,1.464,6.128h0.08c0.296-1.992,0.712-4,1.2-6.128l2.032-8.128h4.544l-5.752,18.312h-4.288
	l-2.176-7.448c-0.568-1.928-1.032-3.888-1.392-5.864h-0.08c-0.336,1.984-0.8,3.944-1.392,5.864l-2.328,7.448h-4.328l-5.416-18.312
	H244.392z"/>
<path d="M273.16,71.244l1.912,8.312c0.416,1.952,0.8,3.944,1.168,5.936h0.08c0.376-1.992,0.976-4,1.504-5.896l2.4-8.352h3.76
	l2.296,8.128c0.56,2.144,1.048,4.136,1.464,6.128h0.08c0.296-1.992,0.712-4,1.2-6.128l2.032-8.128h4.544l-5.752,18.312h-4.328
	l-2.176-7.448c-0.568-1.928-1.032-3.888-1.392-5.864h-0.08c-0.336,1.984-0.8,3.944-1.392,5.864l-2.328,7.448h-4.328l-5.416-18.312
	H273.16z"/>
<path d="M296.312,86.996c-0.104-1.544,1.064-2.888,2.608-2.992c0.096-0.008,0.184-0.008,0.28-0.008c1.64,0,2.968,1.328,2.968,2.968
	s-1.328,2.96-2.968,2.968c-1.56,0.04-2.856-1.2-2.888-2.76C296.312,87.116,296.312,87.052,296.312,86.996z"/>
<rect y="459.596" width="512" height="12.768"/>
<polygon points="501.744,459.588 435.928,459.588 407.336,459.588 104.664,459.588 76.072,459.588 10.256,459.588 0,459.588 
	0,472.356 512,472.356 512,459.588 "/>
<polygon points="440.352,92.508 437.496,89.708 447.384,79.548 436.904,69.324 439.696,66.468 453.04,79.468 "/>
<rect x="421.616" y="77.508" width="26.416" height="4"/>
<circle cx="192.88" cy="376.076" r="24.416"/>
<circle style="fill:#999999;" cx="192.88" cy="376.076" r="11.864"/>
<polygon points="100.856,257.172 84.816,209.708 43.296,209.708 43.296,197.028 93.92,197.028 112.872,253.108 "/>
<circle cx="119.216" cy="376.076" r="24.416"/>
<polygon style="fill:#FFFFFF;" points="102.368,336.692 75.528,250.516 240.52,250.516 209.808,336.692 "/>
<g>
	<path style="fill:#E21B1B;" d="M234.848,254.516l-27.864,78.176h-101.68L80.96,254.516L234.848,254.516 M246.192,246.516H70.096
		l29.328,94.176h113.2l33.6-94.176L246.192,246.516L246.192,246.516z"/>
	<polygon style="fill:#E21B1B;" points="229.616,279.852 188.76,279.852 178.944,297.1 138.496,297.1 142.32,309.044 
		217.824,309.044 	"/>
</g>
<g>
	<circle style="fill:#999999;" cx="119.216" cy="376.076" r="11.864"/>
	<circle style="fill:#999999;" cx="310.328" cy="351.396" r="49.784"/>
</g>
<circle style="fill:#E21B1B;" cx="310.328" cy="226.804" r="49.784"/>
<g>
	<path style="fill:#FFFFFF;" d="M307.928,254.108v-6.688c-3.928-0.04-7.784-1.088-11.2-3.04l1.856-6.48
		c3.264,1.928,6.968,2.976,10.76,3.032c4.344,0,7.312-2.144,7.312-5.448c0-3.112-2.4-5.112-7.512-6.968
		c-7.24-2.616-11.936-5.928-11.936-12.344c0.12-6.192,4.936-11.272,11.112-11.728v-6.76h5.656v6.4
		c3.304,0.032,6.552,0.808,9.512,2.272l-1.856,6.344c-2.896-1.52-6.112-2.32-9.384-2.344c-4.8,0-6.552,2.488-6.552,4.8
		c0,2.832,2.488,4.416,8.352,6.76c7.72,2.896,11.2,6.624,11.2,12.8c-0.128,6.488-5.176,11.808-11.648,12.288v7.104H307.928
		L307.928,254.108z"/>
	<path style="fill:#FFFFFF;" d="M327.048,372.996c-3.608,2.048-7.688,3.112-11.84,3.096c-6.752,0.176-13.216-2.776-17.496-8
		c-2.696-3.296-4.384-7.296-4.872-11.528h-4.952v-4.728h4.336v-1.232c0-0.928,0.08-1.936,0.16-2.792h-4.496v-4.8h5.184
		c0.792-4.368,2.808-8.416,5.808-11.688c4.24-4.752,10.352-7.416,16.72-7.272c3.816-0.024,7.6,0.792,11.064,2.4l-1.928,7.2
		c-2.688-1.368-5.656-2.088-8.672-2.088c-3.744-0.096-7.344,1.456-9.832,4.256c-1.768,2.048-2.944,4.536-3.408,7.2h20.28v4.8
		h-21.216c-0.128,0.896-0.176,1.808-0.152,2.712v1.312h21.36v4.728h-20.504c0.336,2.8,1.496,5.432,3.328,7.576
		c2.712,2.816,6.496,4.336,10.4,4.176c3.184-0.032,6.32-0.832,9.136-2.32L327.048,372.996z"/>
</g>
<circle cx="418.96" cy="289.116" r="49.784"/>
<path style="fill:#FFFFFF;" d="M415.064,315.196v-12.248H403.6v-4.488h11.464v-4.992H403.6v-4.488h9.2l-12.2-21.528h9.776
	l6.168,13.296c1.328,2.72,2.136,5,3.088,7.352h0.152c0.88-2.2,1.832-4.8,3.088-7.496l6.4-13.16h9.528l-12.856,21.528h9.12v4.488
	h-11.552v4.992h11.536v4.488h-11.536v12.256H415.064z"/>
</svg>